<svg width="33" height="32" viewBox="0 0 33 32" fill="none" xmlns="http://www.w3.org/2000/svg">
<path fill-rule="evenodd" clip-rule="evenodd" d="M16.5001 6.28516C17.4468 6.28516 18.2143 7.05268 18.2143 7.99944V16.1717L23.0963 19.1009C23.9083 19.588 24.1714 20.641 23.6843 21.4529C23.1972 22.2647 22.1442 22.528 21.3323 22.0409L15.6181 18.6123C15.1017 18.3025 14.7858 17.7445 14.7858 17.1423V7.99944C14.7858 7.05268 15.5533 6.28516 16.5001 6.28516Z" fill="#59392D"/>
<path fill-rule="evenodd" clip-rule="evenodd" d="M3.92857 16C3.92857 9.05698 9.55698 3.42857 16.5 3.42857C20.5019 3.42857 24.0691 5.29819 26.3727 8.21614L24.1654 10.4236C23.4454 11.1436 23.9553 12.3746 24.9734 12.3746H31.3571C31.9882 12.3746 32.5 11.8629 32.5 11.2318V4.848C32.5 3.82983 31.2689 3.31993 30.5489 4.03989L28.8099 5.77895C25.8765 2.24983 21.4519 0 16.5 0C7.66345 0 0.5 7.16345 0.5 16C0.5 24.8366 7.66345 32 16.5 32C24.068 32 30.4049 26.7474 32.0719 19.6908C32.2895 18.7694 31.719 17.846 30.7976 17.6283C29.8762 17.4107 28.9528 17.9812 28.735 18.9026C27.4255 24.4469 22.4423 28.5714 16.5 28.5714C9.55698 28.5714 3.92857 22.9431 3.92857 16Z" fill="#59392D"/>
</svg>
