<svg width="32" height="32" viewBox="0 0 32 32" fill="none" xmlns="http://www.w3.org/2000/svg">
<path fill-rule="evenodd" clip-rule="evenodd" d="M16 0C7.16345 0 0 7.16345 0 16C0 24.8366 7.16345 32 16 32C24.8366 32 32 24.8366 32 16C32 7.16345 24.8366 0 16 0Z" fill="#562C1D" fill-opacity="0.47"/>
<path fill-rule="evenodd" clip-rule="evenodd" d="M20.4598 0.629918C19.2879 0.290505 18.0607 0.0814621 16.7949 0.0195312C19.5515 4.37602 21.2578 9.36738 21.7532 14.5716H10.2467C10.7421 9.36738 12.4484 4.37604 15.205 0.0195347C13.9392 0.0814715 12.712 0.290514 11.5402 0.629936C9.23223 4.91264 7.80814 9.66014 7.37767 14.5716H0.0629067C0.0212649 15.0422 0 15.5187 0 16.0001C0 16.4816 0.021265 16.9581 0.0629067 17.4287H7.37767C7.80814 22.3401 9.23223 27.0875 11.5402 31.3703C12.712 31.7097 13.9392 31.9189 15.205 31.9808C12.4484 27.6242 10.7421 22.6329 10.2467 17.4287H21.7532C21.2578 22.6329 19.5515 27.6242 16.7949 31.9808C18.0608 31.9189 19.288 31.7097 20.4598 31.3703C22.7677 27.0875 24.1918 22.3401 24.6222 17.4287H31.9371C31.9787 16.9581 32 16.4816 32 16.0001C32 15.5187 31.9787 15.0422 31.9371 14.5716H24.6222C24.1918 9.66014 22.7677 4.91262 20.4598 0.629918Z" fill="#562C1D" fill-opacity="0.47"/>
</svg>
