<svg width="33" height="32" viewBox="0 0 33 32" fill="none" xmlns="http://www.w3.org/2000/svg">
<g clip-path="url(#clip0_71_933)">
<path d="M14.2143 25.1423C20.5262 25.1423 25.6429 20.0256 25.6429 13.7137C25.6429 7.4019 20.5262 2.28516 14.2143 2.28516C7.90251 2.28516 2.78577 7.4019 2.78577 13.7137C2.78577 20.0256 7.90251 25.1423 14.2143 25.1423Z" fill="#927A71" fill-opacity="0.621236"/>
<path fill-rule="evenodd" clip-rule="evenodd" d="M5.07143 13.7143C5.07143 8.66482 9.16482 4.57143 14.2143 4.57143C19.2637 4.57143 23.3571 8.66482 23.3571 13.7143C23.3571 18.7638 19.2637 22.8571 14.2143 22.8571C9.16482 22.8571 5.07143 18.7638 5.07143 13.7143ZM14.2143 0C6.64009 0 0.5 6.14009 0.5 13.7143C0.5 21.2885 6.64009 27.4286 14.2143 27.4286C17.1761 27.4286 19.9186 26.4896 22.1604 24.8933L28.5981 31.331C29.4906 32.2235 30.9379 32.2235 31.8305 31.331C32.7231 30.4384 32.7231 28.9911 31.8305 28.0985L25.393 21.6609C26.9896 19.419 27.9286 16.6763 27.9286 13.7143C27.9286 6.14009 21.7885 0 14.2143 0Z" fill="black" fill-opacity="0.526042"/>
</g>
<defs>
<clipPath id="clip0_71_933">
<rect width="32" height="32" fill="white" transform="translate(0.5)"/>
</clipPath>
</defs>
</svg>
